<svg width="60" height="60" viewBox="0 0 60 60" fill="none" xmlns="http://www.w3.org/2000/svg">
<g clip-path="url(#clip0_17_40)">
<path d="M9.32999 16.74C9.88227 16.74 10.33 16.2923 10.33 15.74C10.33 15.1877 9.88227 14.74 9.32999 14.74C8.7777 14.74 8.32999 15.1877 8.32999 15.74C8.32999 16.2923 8.7777 16.74 9.32999 16.74Z" fill="#222F63"/>
<path d="M16 16.74C16.5523 16.74 17 16.2923 17 15.74C17 15.1877 16.5523 14.74 16 14.74C15.4477 14.74 15 15.1877 15 15.74C15 16.2923 15.4477 16.74 16 16.74Z" fill="#222F63"/>
<path d="M12.67 16.74C13.2223 16.74 13.67 16.2923 13.67 15.74C13.67 15.1877 13.2223 14.74 12.67 14.74C12.1177 14.74 11.67 15.1877 11.67 15.74C11.67 16.2923 12.1177 16.74 12.67 16.74Z" fill="#222F63"/>
<path d="M20 30.25L23 27.25C23.1883 27.0617 23.2941 26.8063 23.2941 26.54C23.2941 26.2737 23.1883 26.0183 23 25.83C22.8117 25.6417 22.5563 25.5359 22.29 25.5359C22.0237 25.5359 21.7683 25.6417 21.58 25.83L17.86 29.56C17.6738 29.7473 17.5692 30.0008 17.5692 30.265C17.5692 30.5292 17.6738 30.7826 17.86 30.97L21.58 34.7C21.673 34.7937 21.7836 34.8681 21.9054 34.9189C22.0273 34.9696 22.158 34.9958 22.29 34.9958C22.422 34.9958 22.5527 34.9696 22.6746 34.9189C22.7964 34.8681 22.907 34.7937 23 34.7C23.1863 34.5126 23.2908 34.2592 23.2908 33.995C23.2908 33.7308 23.1863 33.4773 23 33.29L20 30.25Z" fill="#222F63"/>
<path d="M34.32 34.68C34.5074 34.8663 34.7608 34.9708 35.025 34.9708C35.2892 34.9708 35.5426 34.8663 35.73 34.68L39.46 31C39.6463 30.8127 39.7508 30.5592 39.7508 30.295C39.7508 30.0308 39.6463 29.7774 39.46 29.59L35.73 25.86C35.5417 25.673 35.2868 25.5685 35.0215 25.5695C34.7561 25.5704 34.502 25.6767 34.315 25.865C34.128 26.0533 34.0235 26.3082 34.0245 26.5736C34.0254 26.8389 34.1317 27.093 34.32 27.28L37.32 30.28L34.32 33.28C34.1368 33.4669 34.0341 33.7183 34.0341 33.98C34.0341 34.2418 34.1368 34.4931 34.32 34.68Z" fill="#222F63"/>
<path d="M31 26.15C30.8859 26.0838 30.7598 26.041 30.629 26.0238C30.4982 26.0066 30.3653 26.0155 30.238 26.0498C30.1106 26.0842 29.9914 26.1435 29.887 26.2242C29.7827 26.3049 29.6953 26.4054 29.63 26.52L25.94 33C25.8676 33.1138 25.8191 33.2411 25.7972 33.3741C25.7753 33.5072 25.7805 33.6434 25.8126 33.7744C25.8447 33.9054 25.903 34.0285 25.9839 34.1364C26.0648 34.2443 26.1667 34.3347 26.2835 34.4022C26.4002 34.4697 26.5294 34.5129 26.6633 34.5291C26.7972 34.5454 26.933 34.5344 27.0625 34.4968C27.1921 34.4593 27.3126 34.3959 27.417 34.3105C27.5214 34.2251 27.6075 34.1195 27.67 34L31.4 27.55C31.4698 27.4328 31.5148 27.3026 31.5324 27.1674C31.55 27.0321 31.5398 26.8947 31.5023 26.7636C31.4649 26.6325 31.401 26.5104 31.3146 26.4049C31.2282 26.2993 31.1211 26.2126 31 26.15Z" fill="#222F63"/>
<path d="M55.86 40C55.801 39.9995 55.7436 39.9811 55.6953 39.9472C55.6471 39.9132 55.6103 39.8654 55.59 39.81C55.1921 38.7633 54.6282 37.7874 53.92 36.92C53.8865 36.8715 53.8685 36.8139 53.8685 36.755C53.8685 36.696 53.8865 36.6385 53.92 36.59C54.2246 36.0621 54.3072 35.4349 54.1497 34.8462C53.9922 34.2575 53.6075 33.7553 53.08 33.45L52.33 33V14.74C52.33 13.9443 52.0139 13.1813 51.4513 12.6187C50.8887 12.0561 50.1257 11.74 49.33 11.74H8C7.20435 11.74 6.44129 12.0561 5.87868 12.6187C5.31607 13.1813 5 13.9443 5 14.74V40.08C5.00263 40.6971 5.24896 41.2883 5.68535 41.7246C6.12174 42.161 6.71286 42.4074 7.33 42.41H21L20 46.11H18.67C17.696 46.1107 16.7507 46.4397 15.9867 47.0439C15.2228 47.6482 14.6849 48.4923 14.46 49.44H12C11.7348 49.44 11.4804 49.5454 11.2929 49.7329C11.1054 49.9204 11 50.1748 11 50.44C11 50.7052 11.1054 50.9596 11.2929 51.1471C11.4804 51.3346 11.7348 51.44 12 51.44H37.47C37.4531 51.6789 37.4767 51.919 37.54 52.15C37.615 52.4433 37.7484 52.7185 37.9323 52.9591C38.1161 53.1997 38.3466 53.4006 38.61 53.55L40.72 54.77C40.982 54.9204 41.271 55.0177 41.5706 55.0564C41.8702 55.095 42.1745 55.0743 42.4661 54.9954C42.7576 54.9165 43.0308 54.7809 43.27 54.5963C43.5092 54.4118 43.7097 54.182 43.86 53.92C43.8924 53.869 43.939 53.8285 43.9941 53.8037C44.0492 53.7788 44.1103 53.7706 44.17 53.78C45.2685 53.97 46.3915 53.97 47.49 53.78C47.5508 53.7701 47.6132 53.7792 47.6687 53.8061C47.7241 53.8329 47.77 53.8762 47.8 53.93C48.0038 54.279 48.296 54.5681 48.6471 54.7682C48.9982 54.9684 49.3959 55.0724 49.8 55.07C50.2032 55.0739 50.6001 54.9703 50.95 54.77L53.06 53.55C53.322 53.3988 53.5514 53.1973 53.735 52.957C53.9187 52.7167 54.0529 52.4424 54.13 52.15C54.2096 51.8593 54.2303 51.5556 54.1908 51.2568C54.1513 50.9579 54.0524 50.67 53.9 50.41C53.8656 50.36 53.8472 50.3007 53.8472 50.24C53.8472 50.1793 53.8656 50.12 53.9 50.07C54.606 49.2047 55.1697 48.2325 55.57 47.19C55.5891 47.1338 55.6255 47.0851 55.674 47.051C55.7225 47.0168 55.7807 46.999 55.84 47C56.4492 46.9974 57.0327 46.7542 57.4634 46.3234C57.8942 45.8927 58.1374 45.3092 58.14 44.7V42.26C58.1296 41.6604 57.8854 41.0886 57.4595 40.6664C57.0336 40.2442 56.4597 40.0051 55.86 40ZM7 14.74C7 14.4748 7.10536 14.2204 7.29289 14.0329C7.48043 13.8453 7.73478 13.74 8 13.74H49.33C49.5952 13.74 49.8496 13.8453 50.0371 14.0329C50.2246 14.2204 50.33 14.4748 50.33 14.74V17.74H7V14.74ZM7.33 40.41C7.28666 40.41 7.24375 40.4015 7.20371 40.3849C7.16368 40.3683 7.1273 40.344 7.09665 40.3133C7.06601 40.2827 7.0417 40.2463 7.02512 40.2063C7.00854 40.1662 7 40.1233 7 40.08V19.74H50.33V32C49.8568 31.8743 49.3558 31.9036 48.9004 32.0836C48.4451 32.2636 48.0594 32.5847 47.8 33C47.7689 33.0493 47.7236 33.0881 47.6701 33.1113C47.6165 33.1345 47.5573 33.141 47.5 33.13C46.4007 32.9499 45.2793 32.9499 44.18 33.13C44.1227 33.1425 44.0629 33.1367 44.0091 33.1133C43.9552 33.09 43.9101 33.0504 43.88 33C43.7298 32.7378 43.5292 32.508 43.2897 32.3237C43.0503 32.1394 42.7768 32.0044 42.4849 31.9263C42.193 31.8482 41.8886 31.8287 41.5891 31.8688C41.2896 31.9089 41.001 32.0079 40.74 32.16L38.63 33.38C38.3673 33.5278 38.1371 33.7271 37.9533 33.9659C37.7694 34.2047 37.6357 34.4782 37.56 34.77C37.4001 35.3595 37.4791 35.9884 37.78 36.52C37.8165 36.5673 37.8363 36.6253 37.8363 36.685C37.8363 36.7447 37.8165 36.8027 37.78 36.85C37.0718 37.7174 36.5079 38.6933 36.11 39.74C36.0897 39.7954 36.0529 39.8432 36.0047 39.8772C35.9564 39.9111 35.899 39.9295 35.84 39.93C35.3502 39.9307 34.8735 40.0884 34.48 40.38L7.33 40.41ZM34 46.11H22L23 42.41H33.5V44.7C33.5064 45.2123 33.6822 45.7081 34 46.11ZM18.68 48.11H36.48C36.7086 48.571 36.9692 49.0154 37.26 49.44H16.57C16.7588 49.0427 17.0562 48.7069 17.4278 48.4716C17.7995 48.2362 18.2301 48.1108 18.67 48.11H18.68ZM56.16 44.7C56.16 44.7796 56.1284 44.8559 56.0721 44.9121C56.0159 44.9684 55.9396 45 55.86 45C55.3942 45.0011 54.9396 45.1431 54.5559 45.4072C54.1722 45.6713 53.8774 46.0453 53.71 46.48C53.3904 47.3231 52.938 48.1097 52.37 48.81C52.0771 49.1718 51.9004 49.6136 51.8629 50.0775C51.8254 50.5415 51.929 51.0059 52.16 51.41C52.1761 51.4444 52.1844 51.482 52.1844 51.52C52.1844 51.558 52.1761 51.5955 52.16 51.63C52.1513 51.6697 52.1343 51.7071 52.1102 51.7399C52.0861 51.7726 52.0554 51.7999 52.02 51.82L49.94 53C49.9053 53.0193 49.867 53.0315 49.8275 53.036C49.788 53.0404 49.7481 53.0369 49.7099 53.0257C49.6718 53.0146 49.6362 52.9959 49.6053 52.9709C49.5744 52.9459 49.5488 52.915 49.53 52.88C49.2936 52.477 48.9405 52.1552 48.5174 51.957C48.0942 51.7588 47.621 51.6936 47.16 51.77C46.2797 51.92 45.3803 51.92 44.5 51.77C44.038 51.6946 43.564 51.7613 43.1408 51.9613C42.7175 52.1613 42.365 52.4852 42.13 52.89C42.0885 52.957 42.023 53.0057 41.9468 53.0262C41.8706 53.0466 41.7895 53.0373 41.72 53L39.61 51.78C39.5746 51.7599 39.5439 51.7326 39.5198 51.6999C39.4957 51.6671 39.4787 51.6297 39.47 51.59C39.4539 51.5555 39.4456 51.518 39.4456 51.48C39.4456 51.442 39.4539 51.4044 39.47 51.37C39.6983 50.9651 39.8004 50.5012 39.7629 50.0378C39.7255 49.5745 39.5504 49.133 39.26 48.77C38.6869 48.0715 38.231 47.2846 37.91 46.44C37.7423 46.0167 37.4517 45.6534 37.0756 45.3967C36.6996 45.1401 36.2553 45.0019 35.8 45C35.7204 45 35.6441 44.9684 35.5879 44.9121C35.5316 44.8559 35.5 44.7796 35.5 44.7V42.26C35.4986 42.2202 35.5054 42.1806 35.52 42.1436C35.5346 42.1065 35.5566 42.0729 35.5848 42.0448C35.6129 42.0166 35.6465 41.9946 35.6836 41.98C35.7206 41.9654 35.7602 41.9586 35.8 41.96C36.2644 41.9582 36.7174 41.8159 37.0994 41.5517C37.4814 41.2875 37.7744 40.9139 37.94 40.48C38.2587 39.6343 38.7148 38.8471 39.29 38.15C39.5804 37.787 39.7555 37.3455 39.7929 36.8821C39.8304 36.4188 39.7283 35.9549 39.5 35.55C39.4837 35.5138 39.4753 35.4746 39.4753 35.435C39.4753 35.3953 39.4837 35.3561 39.5 35.32C39.5081 35.2813 39.525 35.245 39.5492 35.2138C39.5735 35.1826 39.6045 35.1574 39.64 35.14L41.75 33.92C41.7991 33.9063 41.8509 33.9063 41.9 33.92C41.95 33.9206 41.9991 33.9338 42.0428 33.9582C42.0865 33.9827 42.1233 34.0177 42.15 34.06C42.3861 34.4639 42.7387 34.7869 43.1617 34.9868C43.5846 35.1867 44.0581 35.254 44.52 35.18C45.4003 35.03 46.2997 35.03 47.18 35.18C47.645 35.2428 48.1181 35.1637 48.5374 34.9532C48.9567 34.7426 49.3026 34.4104 49.53 34C49.5496 33.967 49.5754 33.9382 49.6062 33.9153C49.6369 33.8924 49.6719 33.8758 49.7091 33.8665C49.7463 33.8572 49.785 33.8554 49.8229 33.8611C49.8608 33.8669 49.8972 33.8801 49.93 33.9L52.04 35.12C52.0755 35.1374 52.1065 35.1626 52.1308 35.1938C52.155 35.225 52.1719 35.2613 52.18 35.3C52.1963 35.3361 52.2047 35.3753 52.2047 35.415C52.2047 35.4546 52.1963 35.4938 52.18 35.53C51.9498 35.9326 51.8467 36.3953 51.8842 36.8575C51.9217 37.3197 52.098 37.7598 52.39 38.12C52.9582 38.8238 53.4105 39.6137 53.73 40.46C53.8876 40.902 54.1756 41.2858 54.5559 41.5607C54.9362 41.8357 55.3909 41.9888 55.86 42C55.8998 41.9986 55.9394 42.0054 55.9764 42.02C56.0135 42.0346 56.0471 42.0566 56.0752 42.0847C56.1034 42.1129 56.1254 42.1465 56.14 42.1836C56.1546 42.2206 56.1614 42.2602 56.16 42.3V44.7Z" fill="#222F63"/>
<path d="M45.83 38.94C44.9321 38.94 44.0543 39.2063 43.3077 39.7051C42.5611 40.204 41.9792 40.913 41.6356 41.7426C41.292 42.5722 41.2021 43.485 41.3772 44.3657C41.5524 45.2464 41.9848 46.0553 42.6197 46.6903C43.2547 47.3252 44.0636 47.7576 44.9443 47.9328C45.825 48.1079 46.7378 48.018 47.5674 47.6744C48.397 47.3308 49.106 46.7489 49.6049 46.0023C50.1037 45.2557 50.37 44.3779 50.37 43.48C50.37 42.2759 49.8917 41.1212 49.0403 40.2697C48.1889 39.4183 47.0341 38.94 45.83 38.94ZM45.83 46.02C45.3276 46.02 44.8366 45.871 44.4189 45.5919C44.0012 45.3128 43.6756 44.9161 43.4834 44.452C43.2911 43.9879 43.2408 43.4772 43.3388 42.9845C43.4368 42.4918 43.6787 42.0392 44.034 41.684C44.3892 41.3287 44.8418 41.0868 45.3345 40.9888C45.8272 40.8908 46.3379 40.9411 46.802 41.1334C47.2662 41.3256 47.6628 41.6512 47.9419 42.0689C48.221 42.4866 48.37 42.9776 48.37 43.48C48.3647 44.1502 48.0948 44.7911 47.619 45.2631C47.1433 45.7352 46.5002 46 45.83 46V46.02Z" fill="#222F63"/>
</g>
<defs>
<clipPath id="clip0_17_40">
<rect width="60" height="60" fill="white"/>
</clipPath>
</defs>
</svg>
