<svg width="58" height="47" viewBox="0 0 58 47" fill="none" xmlns="http://www.w3.org/2000/svg">
<path fill-rule="evenodd" clip-rule="evenodd" d="M52.75 46.5H5.25C2.48875 46.5 0.25 44.2613 0.25 41.5V15.25C0.25 12.4887 2.48875 10.25 5.25 10.25H24V5.25C24 2.48875 26.2387 0.25 29 0.25C31.7613 0.25 34 2.48875 34 5.25V10.25H52.75C55.5113 10.25 57.75 12.4887 57.75 15.25V41.5C57.75 44.2613 55.5113 46.5 52.75 46.5ZM20.2675 37.11C20.2675 37.1137 20.2675 37.115 20.2675 37.115C20.2625 37.115 20.245 36.1387 20.245 36.1387C20.245 36.1387 21.7025 35.3875 22.7838 34.4163C23.4175 33.895 23.71 32.7138 23.71 32.7138C23.8812 31.6788 24.0075 29.1175 24.0075 28.085C24.0075 25.5075 22.7162 22.735 18.9987 22.735V22.725V22.7337C15.2812 22.7337 13.99 25.5075 13.99 28.0838C13.99 29.1163 14.1175 31.6775 14.2875 32.7125C14.2875 32.7125 14.58 33.8938 15.2137 34.415C16.295 35.3863 17.7525 36.1375 17.7525 36.1375C17.7525 36.1375 17.735 37.1138 17.73 37.1138C17.73 37.1138 17.73 37.1125 17.73 37.1087C17.73 37.1087 17.7662 38.5412 17.7662 38.9675C17.7662 40.67 16.06 41.49 14.9875 41.49C14.985 41.49 14.9837 41.49 14.9837 41.49C11.7425 41.6313 10.9775 42.71 10.9712 42.72C10.7737 43.0375 10.4988 43.3525 10.2475 44H27.7525C27.5013 43.3525 27.2263 43.0375 27.025 42.7225C27.0188 42.7113 26.2537 41.6337 23.0125 41.4925C23.0125 41.4925 23.0113 41.4925 23.0088 41.4925C21.9375 41.4925 20.23 40.6738 20.23 38.97C20.23 38.5425 20.2675 37.11 20.2675 37.11ZM31.5 5.25C31.5 3.87 30.38 2.75 29 2.75C27.62 2.75 26.5 3.87 26.5 5.25V12.75C26.5 14.13 27.62 15.25 29 15.25C30.38 15.25 31.5 14.13 31.5 12.75V5.25ZM55.25 15.25C55.25 13.87 54.13 12.75 52.75 12.75H34C34 15.5113 31.7613 17.75 29 17.75C26.2387 17.75 24 15.5113 24 12.75H5.25C3.87 12.75 2.75 13.87 2.75 15.25V41.5C2.75 42.88 3.87 44 5.25 44H7.49625C7.785 43.2638 8.31625 42.0637 8.94625 41.2C8.9775 41.1825 10.0062 39.0263 15.1937 38.9625C15.2012 38.9363 15.2063 37.66 15.2213 37.6788C14.8213 37.4263 14.3 37.0337 13.9075 36.6587C13.5887 36.4637 12.4562 35.3725 12.0925 33.43C11.9837 32.7525 11.4825 29.5563 11.4825 28.2225C11.4825 24.2588 13.0637 20.2462 18.9238 20.2462C18.95 20.2462 19.0487 20.2462 19.075 20.2462C24.935 20.2462 26.5163 24.2588 26.5163 28.2225C26.5163 29.5563 26.015 32.7525 25.9062 33.43C25.5425 35.3725 24.41 36.4637 24.0912 36.6587C23.7 37.035 23.1787 37.4263 22.7775 37.6788C22.7937 37.66 22.7988 38.9375 22.805 38.9625C27.9938 39.0263 29.0225 41.1825 29.0525 41.2C29.6825 42.0637 30.2137 43.2638 30.5025 44H52.75C54.13 44 55.25 42.88 55.25 41.5V15.25ZM49 26.5H34C33.3088 26.5 32.75 25.9412 32.75 25.25C32.75 24.5588 33.3088 24 34 24H49C49.6912 24 50.25 24.5588 50.25 25.25C50.25 25.9412 49.6912 26.5 49 26.5ZM34 31.5H36.5C37.1912 31.5 37.75 32.0588 37.75 32.75C37.75 33.4412 37.1912 34 36.5 34H34C33.3088 34 32.75 33.4412 32.75 32.75C32.75 32.0588 33.3088 31.5 34 31.5ZM34 36.5H41.5C42.1912 36.5 42.75 37.0588 42.75 37.75C42.75 38.4412 42.1912 39 41.5 39H34C33.3088 39 32.75 38.4412 32.75 37.75C32.75 37.0588 33.3088 36.5 34 36.5ZM39 32.75C39 32.0588 39.5588 31.5 40.25 31.5H45.25C45.9412 31.5 46.5 32.0588 46.5 32.75C46.5 33.4412 45.9412 34 45.25 34H40.25C39.5588 34 39 33.4412 39 32.75ZM27.75 5.25H30.25V7.75H27.75V5.25Z" fill="#222F63"/>
</svg>
