<svg width="60" height="60" viewBox="0 0 60 60" fill="none" xmlns="http://www.w3.org/2000/svg">
<path d="M30.828 35.201L31.794 39.683" stroke="#222F63" stroke-width="1.5" stroke-linecap="round" stroke-linejoin="round"/>
<path d="M22.271 26.454C21.4351 24.9461 20.809 23.3312 20.41 21.654C20.3298 21.2827 20.1105 20.9563 19.7971 20.7417C19.4838 20.527 19.1001 20.4406 18.725 20.5L18.683 20.507C18.4844 20.5392 18.2944 20.6117 18.1248 20.72C17.9552 20.8282 17.8094 20.97 17.6965 21.1365C17.5836 21.3031 17.5059 21.491 17.4681 21.6886C17.4304 21.8863 17.4334 22.0895 17.477 22.286C18.1474 25.3278 19.4271 28.2023 21.239 30.736C23.012 33.093 22.659 33.969 23.039 39.566" stroke="#222F63" stroke-width="1.5" stroke-linecap="round" stroke-linejoin="round"/>
<path d="M28.574 29.294C28.574 29.294 31.983 29.433 32.974 32.224C33.689 34.686 34.2053 37.2014 34.518 39.746" stroke="#222F63" stroke-width="1.5" stroke-linecap="round" stroke-linejoin="round"/>
<path d="M26.441 29.908C28.6567 29.908 30.453 28.1118 30.453 25.896C30.453 23.6802 28.6567 21.884 26.441 21.884C24.2252 21.884 22.429 23.6802 22.429 25.896C22.429 28.1118 24.2252 29.908 26.441 29.908Z" stroke="#222F63" stroke-width="1.5" stroke-linecap="round" stroke-linejoin="round"/>
<path d="M37.6 24.984C36.5207 23.101 35.7169 21.0731 35.213 18.962C35.1174 18.5233 34.8576 18.1377 34.4869 17.8845C34.1161 17.6312 33.6624 17.5294 33.219 17.6L33.169 17.608C32.9339 17.6462 32.7091 17.732 32.5083 17.8601C32.3075 17.9883 32.135 18.1561 32.0014 18.3533C31.8678 18.5505 31.7759 18.7729 31.7313 19.0069C31.6867 19.2409 31.6903 19.4815 31.742 19.714C32.5352 23.3137 34.0493 26.7155 36.193 29.714C37.745 31.777 37.921 32.881 38.093 35.995C38.1844 37.2241 38.1914 38.458 38.114 39.688" stroke="#222F63" stroke-width="1.5" stroke-linecap="round" stroke-linejoin="round"/>
<path d="M46.028 26.988C47.7084 24.5723 48.8845 21.8426 49.486 18.962C49.5815 18.5233 49.8413 18.1377 50.2121 17.8845C50.5829 17.6312 51.0365 17.5294 51.48 17.6L51.529 17.608C51.7641 17.6462 51.989 17.732 52.1898 17.8601C52.3906 17.9883 52.5631 18.1561 52.6968 18.3532C52.8305 18.5504 52.9226 18.7728 52.9673 19.0068C53.012 19.2408 53.0085 19.4814 52.957 19.714C52.1634 23.3136 50.6493 26.7152 48.506 29.714C46.954 31.777 46.778 32.881 46.606 35.995C46.5456 37.0186 46.5396 38.0447 46.588 39.069" stroke="#222F63" stroke-width="1.5" stroke-linecap="round" stroke-linejoin="round"/>
<path d="M42.3489 28.736C44.9712 28.736 47.097 26.6102 47.097 23.988C47.097 21.3657 44.9712 19.24 42.3489 19.24C39.7267 19.24 37.601 21.3657 37.601 23.988C37.601 26.6102 39.7267 28.736 42.3489 28.736Z" stroke="#222F63" stroke-width="1.5" stroke-linecap="round" stroke-linejoin="round"/>
<path d="M14.942 1.74701L14.348 39.064" stroke="#222F63" stroke-width="1.5" stroke-linecap="round" stroke-linejoin="round"/>
<path d="M14.756 13.4C14.756 13.4 26.487 11.488 24.638 13.824C23.138 15.718 29.221 14.54 31.577 14.024C31.8319 13.9695 32.0604 13.8291 32.2242 13.6263C32.388 13.4235 32.4772 13.1707 32.477 12.91V4.43C32.4771 4.26007 32.4392 4.09227 32.3662 3.93885C32.2931 3.78543 32.1867 3.65026 32.0548 3.54321C31.9228 3.43616 31.7686 3.35994 31.6034 3.32011C31.4382 3.28028 31.2662 3.27785 31.1 3.313C28.5 3.858 23.232 4.784 24.639 3.007C26.488 0.670998 14.939 1.747 14.939 1.747L14.756 13.4Z" stroke="#222F63" stroke-width="1.5" stroke-linecap="round" stroke-linejoin="round"/>
<path d="M25.6 58.5C24.4631 58.5018 23.3442 58.2158 22.3475 57.6687C21.3509 57.1216 20.5089 56.3311 19.9 55.371" stroke="#222F63" stroke-width="1.5" stroke-linecap="round" stroke-linejoin="round"/>
<path d="M19.9 55.369C19.2913 56.3281 18.4502 57.1178 17.4548 57.6651C16.4594 58.2123 15.3419 58.4992 14.206 58.4992C13.0701 58.4992 11.9526 58.2123 10.9571 57.6651C9.96172 57.1178 9.12065 56.3281 8.51196 55.369" stroke="#222F63" stroke-width="1.5" stroke-linecap="round" stroke-linejoin="round"/>
<path d="M8.51604 55.369C7.90764 56.3286 7.06651 57.1189 6.07084 57.6663C5.07517 58.2137 3.95727 58.5005 2.82104 58.5" stroke="#222F63" stroke-width="1.5" stroke-linecap="round" stroke-linejoin="round"/>
<path d="M57.73 58.5C56.5941 58.5005 55.4766 58.2139 54.4811 57.6669C53.4856 57.1198 52.6446 56.3301 52.036 55.371" stroke="#222F63" stroke-width="1.5" stroke-linecap="round" stroke-linejoin="round"/>
<path d="M52.0359 55.369C51.4273 56.3281 50.5862 57.1178 49.5908 57.6651C48.5954 58.2123 47.4779 58.4992 46.3419 58.4992C45.206 58.4992 44.0885 58.2123 43.0931 57.6651C42.0977 57.1178 41.2566 56.3281 40.6479 55.369" stroke="#222F63" stroke-width="1.5" stroke-linecap="round" stroke-linejoin="round"/>
<path d="M40.648 55.369C40.0397 56.3288 39.1986 57.1191 38.2029 57.6665C37.2072 58.2139 36.0893 58.5007 34.953 58.5" stroke="#222F63" stroke-width="1.5" stroke-linecap="round" stroke-linejoin="round"/>
<path d="M30.8869 47.347C31.7057 47.2113 32.4865 46.9039 33.1781 46.4452C33.8698 45.9864 34.4565 45.3865 34.9 44.685L36.0999 42.793C36.1719 42.6922 36.2669 42.6101 36.377 42.5535C36.4871 42.4968 36.6091 42.4673 36.733 42.4673C36.8568 42.4673 36.9788 42.4968 37.0889 42.5535C37.199 42.6101 37.294 42.6922 37.366 42.793L38.566 44.685C39.2155 45.7116 40.1661 46.5128 41.2879 46.979C41.5114 44.253 41.4742 41.5119 41.1769 38.793C37.8669 38.984 34.295 39.032 30.825 39C30.938 40.182 31.3549 45.111 30.8869 47.347Z" fill="#222F63"/>
<path d="M43.278 47.42C43.369 47.42 43.46 47.427 43.552 47.427C44.5469 47.4285 45.526 47.1778 46.3978 46.6983C47.2696 46.2188 48.0055 45.5261 48.537 44.685L49.737 42.793C49.8089 42.6923 49.9038 42.6102 50.0138 42.5535C50.1238 42.4969 50.2457 42.4673 50.3695 42.4673C50.4932 42.4673 50.6152 42.4969 50.7252 42.5535C50.8352 42.6102 50.9301 42.6923 51.002 42.793L52.202 44.685C52.9438 45.8585 54.0765 46.7319 55.4 47.151C56.0157 46.6628 56.5178 46.0466 56.8716 45.345C57.2254 44.6434 57.4224 43.8733 57.449 43.088C57.4697 42.3052 57.3256 41.5269 57.0262 40.8033C56.7268 40.0798 56.2787 39.4273 55.711 38.888C55.1663 38.276 54.4713 37.8168 53.6946 37.5558C52.918 37.2948 52.0867 37.2411 51.283 37.4C48.647 38.0678 45.9542 38.4866 43.24 38.651C43.285 39.1 43.864 45.086 43.278 47.42Z" fill="#222F63"/>
<path d="M7.62394 44.686L8.82394 42.792C8.89603 42.6913 8.99111 42.6092 9.10129 42.5525C9.21147 42.4959 9.33356 42.4664 9.45744 42.4664C9.58132 42.4664 9.70342 42.4959 9.81359 42.5525C9.92377 42.6092 10.0188 42.6913 10.0909 42.792L11.2909 44.685C11.8216 45.5262 12.557 46.219 13.4283 46.6986C14.2996 47.1781 15.2784 47.4288 16.2729 47.427C16.4469 47.427 16.6199 47.419 16.7909 47.404C17.0051 44.4361 16.9717 41.4554 16.6909 38.493C13.9249 38.329 12.1639 38.193 12.0719 38.182C11.6969 38.195 8.37194 38.354 6.90794 39.412L1.90794 42.184C1.80814 42.239 1.7222 42.3161 1.65668 42.4093C1.59116 42.5026 1.54778 42.6095 1.52984 42.7221C1.51191 42.8346 1.51989 42.9498 1.55318 43.0587C1.58646 43.1677 1.64418 43.2677 1.72194 43.351L5.03694 46.921C6.10095 46.4476 7.00108 45.67 7.62394 44.686Z" fill="#222F63"/>
<path d="M18.943 46.793C19.8911 46.3115 20.6919 45.5833 21.261 44.685L22.461 42.793C22.533 42.6923 22.628 42.6102 22.7381 42.5535C22.8482 42.4969 22.9702 42.4673 23.094 42.4673C23.2178 42.4673 23.3398 42.4969 23.4499 42.5535C23.56 42.6102 23.655 42.6923 23.727 42.793L24.927 44.685C25.3581 45.3681 25.9254 45.955 26.5935 46.4091C27.2616 46.8631 28.0162 47.1746 28.81 47.324C29.269 45.08 28.858 40.17 28.747 38.972C25.061 38.905 21.58 38.758 18.76 38.609C19.0127 41.3293 19.0739 44.0641 18.943 46.793Z" fill="#222F63"/>
<path d="M36.734 45.854C37.4629 47.0024 38.4701 47.9481 39.6621 48.6034C40.8541 49.2586 42.1923 49.6022 43.5525 49.6022C44.9127 49.6022 46.2509 49.2586 47.4429 48.6034C48.6349 47.9481 49.6421 47.0024 50.371 45.854C51.0997 47.0023 52.1069 47.9479 53.2988 48.6028C54.4908 49.2577 55.829 49.6007 57.189 49.6" stroke="#222F63" stroke-width="1.5" stroke-linecap="round" stroke-linejoin="round"/>
<path d="M23.1 45.854C23.829 47.0024 24.8363 47.9481 26.0284 48.6033C27.2204 49.2586 28.5587 49.6021 29.919 49.6021C31.2793 49.6021 32.6175 49.2586 33.8096 48.6033C35.0017 47.9481 36.0089 47.0024 36.738 45.854" stroke="#222F63" stroke-width="1.5" stroke-linecap="round" stroke-linejoin="round"/>
<path d="M9.45898 45.854C10.1879 47.0024 11.1951 47.9481 12.3871 48.6034C13.5791 49.2586 14.9173 49.6022 16.2775 49.6022C17.6377 49.6022 18.9759 49.2586 20.1679 48.6034C21.3599 47.9481 22.3671 47.0024 23.096 45.854" stroke="#222F63" stroke-width="1.5" stroke-linecap="round" stroke-linejoin="round"/>
<path d="M2.63904 49.6C3.99966 49.6005 5.33834 49.2571 6.53069 48.6017C7.72303 47.9463 8.73035 47.0001 9.45904 45.851" stroke="#222F63" stroke-width="1.5" stroke-linecap="round" stroke-linejoin="round"/>
</svg>
