<svg width="60" height="60" viewBox="0 0 60 60" fill="none" xmlns="http://www.w3.org/2000/svg">
<path d="M54.6 21.8484C54.6 21.6896 54.537 21.5373 54.4248 21.4248L50.64 17.64C50.5275 17.5275 50.3749 17.4644 50.2158 17.4644C50.0567 17.4644 49.9041 17.5275 49.7916 17.64L39.864 27.5628V8.40002C39.864 7.60438 39.548 6.84131 38.9853 6.2787C38.4227 5.71609 37.6597 5.40002 36.864 5.40002H8.40002C7.60438 5.40002 6.84131 5.71609 6.2787 6.2787C5.71609 6.84131 5.40002 7.60438 5.40002 8.40002V51.6C5.40002 52.3957 5.71609 53.1587 6.2787 53.7213C6.84131 54.284 7.60438 54.6 8.40002 54.6H36.864C37.6597 54.6 38.4227 54.284 38.9853 53.7213C39.548 53.1587 39.864 52.3957 39.864 51.6V36.8328L54.4248 22.2732C54.4805 22.2174 54.5246 22.1512 54.5547 22.0783C54.5848 22.0054 54.6002 21.9273 54.6 21.8484Z" fill="#222F63"/>
<path d="M32.4096 35.0184C32.3588 35.0714 32.3181 35.1332 32.2896 35.2008L29.6496 41.214C29.5521 41.3841 29.5122 41.5811 29.5358 41.7757C29.5593 41.9704 29.6452 42.1521 29.7804 42.294C29.8611 42.3741 29.9568 42.4373 30.0621 42.4802C30.1673 42.523 30.28 42.5446 30.3936 42.5436C30.5432 42.5436 30.6906 42.5074 30.8232 42.438L35.2476 40.494V50.0172H9.68762V9.98523H14.7768C15.1168 10.5398 15.593 10.9982 16.1601 11.3168C16.7272 11.6354 17.3663 11.8037 18.0168 11.8056H27.24C27.8905 11.8037 28.5297 11.6354 29.0968 11.3168C29.6639 10.9982 30.14 10.5398 30.48 9.98523H35.232V32.1852L32.4096 35.0184Z" fill="white"/>
<path d="M38.664 51.6C38.664 52.0774 38.4743 52.5352 38.1368 52.8728C37.7992 53.2103 37.3414 53.4 36.864 53.4H8.39998C7.92259 53.4 7.46475 53.2103 7.12718 52.8728C6.78962 52.5352 6.59998 52.0774 6.59998 51.6V8.39998C6.59998 7.92259 6.78962 7.46475 7.12718 7.12718C7.46475 6.78962 7.92259 6.59998 8.39998 6.59998H14.1948V7.97998C14.1954 8.25078 14.2252 8.52073 14.2836 8.78518H9.08758C8.92845 8.78518 8.77583 8.84839 8.66331 8.96091C8.55079 9.07343 8.48758 9.22605 8.48758 9.38518V50.6148C8.48758 50.7739 8.55079 50.9265 8.66331 51.039C8.77583 51.1516 8.92845 51.2148 9.08758 51.2148H35.8392C35.9983 51.2148 36.1509 51.1516 36.2634 51.039C36.376 50.9265 36.4392 50.7739 36.4392 50.6148V39.96L36.8616 39.774C36.9296 39.7456 36.9919 39.7049 37.0452 39.654L38.664 38.034V51.6Z" fill="#222F63"/>
<path d="M22.23 18.9756H33.24C33.3991 18.9756 33.5517 18.9124 33.6643 18.7998C33.7768 18.6873 33.84 18.5347 33.84 18.3756C33.84 18.2164 33.7768 18.0638 33.6643 17.9513C33.5517 17.8388 33.3991 17.7756 33.24 17.7756H22.23C22.0709 17.7756 21.9183 17.8388 21.8057 17.9513C21.6932 18.0638 21.63 18.2164 21.63 18.3756C21.63 18.5347 21.6932 18.6873 21.8057 18.7998C21.9183 18.9124 22.0709 18.9756 22.23 18.9756Z" fill="#222F63"/>
<path d="M16.8996 16.9572L15.5208 18.336L14.9892 17.8044C14.9339 17.7471 14.8677 17.7014 14.7945 17.6699C14.7213 17.6385 14.6425 17.6219 14.5629 17.6212C14.4832 17.6205 14.4042 17.6357 14.3304 17.6659C14.2567 17.6961 14.1897 17.7406 14.1334 17.7969C14.077 17.8533 14.0325 17.9203 14.0023 17.994C13.9722 18.0678 13.957 18.1468 13.9577 18.2264C13.9584 18.3061 13.9749 18.3848 14.0064 18.458C14.0378 18.5312 14.0835 18.5974 14.1408 18.6528L15.1008 19.6128C15.2133 19.7253 15.3659 19.7885 15.525 19.7885C15.6841 19.7885 15.8367 19.7253 15.9492 19.6128L17.7492 17.8128C17.8585 17.6996 17.919 17.5481 17.9176 17.3907C17.9163 17.2334 17.8532 17.0829 17.7419 16.9717C17.6307 16.8604 17.4802 16.7973 17.3229 16.796C17.1655 16.7946 17.014 16.8551 16.9008 16.9644L16.8996 16.9572Z" fill="#222F63"/>
<path d="M15.72 14.082C14.871 14.0817 14.0411 14.3332 13.3351 14.8047C12.629 15.2762 12.0787 15.9464 11.7536 16.7306C11.4285 17.5149 11.3432 18.3779 11.5086 19.2106C11.674 20.0433 12.0826 20.8082 12.6828 21.4087C13.2829 22.0092 14.0476 22.4182 14.8802 22.5841C15.7128 22.7499 16.5759 22.6652 17.3603 22.3405C18.1447 22.0158 18.8153 21.4658 19.2871 20.7601C19.759 20.0543 20.011 19.2245 20.0112 18.3756C20.0099 17.2376 19.5575 16.1466 18.7531 15.3418C17.9487 14.5369 16.8579 14.0839 15.72 14.082ZM15.72 21.4668C15.1083 21.467 14.5102 21.2858 14.0015 20.9461C13.4928 20.6064 13.0962 20.1234 12.862 19.5583C12.6278 18.9932 12.5665 18.3713 12.6858 17.7714C12.805 17.1714 13.0996 16.6203 13.5321 16.1877C13.9647 15.7552 14.5158 15.4606 15.1158 15.3413C15.7158 15.222 16.3376 15.2834 16.9028 15.5176C17.4679 15.7518 17.9508 16.1483 18.2905 16.6571C18.6302 17.1658 18.8114 17.7638 18.8112 18.3756C18.8099 19.195 18.4838 19.9805 17.9044 20.56C17.325 21.1394 16.5394 21.4655 15.72 21.4668Z" fill="#222F63"/>
<path d="M33.24 29.4H22.23C22.0709 29.4 21.9183 29.4632 21.8057 29.5758C21.6932 29.6883 21.63 29.8409 21.63 30C21.63 30.1592 21.6932 30.3118 21.8057 30.4243C21.9183 30.5368 22.0709 30.6 22.23 30.6H33.24C33.3991 30.6 33.5517 30.5368 33.6643 30.4243C33.7768 30.3118 33.84 30.1592 33.84 30C33.84 29.8409 33.7768 29.6883 33.6643 29.5758C33.5517 29.4632 33.3991 29.4 33.24 29.4Z" fill="#222F63"/>
<path d="M16.8996 28.5816L15.5208 29.9616L14.9892 29.4288C14.9339 29.3715 14.8677 29.3258 14.7945 29.2943C14.7213 29.2629 14.6425 29.2463 14.5629 29.2456C14.4832 29.2449 14.4042 29.2601 14.3304 29.2903C14.2567 29.3205 14.1897 29.365 14.1334 29.4213C14.077 29.4777 14.0325 29.5447 14.0023 29.6184C13.9722 29.6921 13.957 29.7711 13.9577 29.8508C13.9584 29.9305 13.9749 30.0092 14.0064 30.0824C14.0378 30.1556 14.0835 30.2218 14.1408 30.2772L15.1008 31.2372C15.2133 31.3497 15.3659 31.4128 15.525 31.4128C15.6841 31.4128 15.8367 31.3497 15.9492 31.2372L17.7492 29.4372C17.8585 29.324 17.919 29.1725 17.9176 29.0151C17.9163 28.8578 17.8532 28.7073 17.7419 28.5961C17.6307 28.4848 17.4802 28.4217 17.3229 28.4204C17.1655 28.419 17.014 28.4795 16.9008 28.5888L16.8996 28.5816Z" fill="#222F63"/>
<path d="M15.72 25.7088C14.8712 25.7086 14.0415 25.96 13.3356 26.4314C12.6298 26.9028 12.0796 27.5729 11.7546 28.357C11.4296 29.1411 11.3445 30.0039 11.5099 30.8364C11.6754 31.6689 12.084 32.4337 12.6841 33.0339C13.2841 33.6342 14.0488 34.043 14.8812 34.2087C15.7136 34.3743 16.5765 34.2894 17.3607 33.9647C18.1449 33.6399 18.8152 33.0899 19.2867 32.3842C19.7583 31.6785 20.01 30.8488 20.01 30C20.0084 28.8626 19.556 27.7722 18.7518 26.9678C17.9477 26.1635 16.8574 25.7107 15.72 25.7088ZM15.72 33.0912C15.1086 33.0914 14.5108 32.9103 14.0023 32.5708C13.4938 32.2313 13.0974 31.7486 12.8633 31.1838C12.6291 30.619 12.5677 29.9974 12.6869 29.3977C12.806 28.798 13.1003 28.247 13.5326 27.8146C13.9648 27.3822 14.5156 27.0877 15.1153 26.9683C15.715 26.8489 16.3366 26.9101 16.9015 27.144C17.4664 27.3779 17.9493 27.7741 18.289 28.2825C18.6287 28.7909 18.81 29.3886 18.81 30C18.8091 30.8193 18.4832 31.6049 17.904 32.1843C17.3247 32.7638 16.5394 33.0899 15.72 33.0912Z" fill="#222F63"/>
<path d="M26.9424 41.0256H22.23C22.0709 41.0256 21.9183 41.0888 21.8057 41.2013C21.6932 41.3138 21.63 41.4664 21.63 41.6256C21.63 41.7847 21.6932 41.9373 21.8057 42.0498C21.9183 42.1624 22.0709 42.2256 22.23 42.2256H26.9424C27.1015 42.2256 27.2541 42.1624 27.3667 42.0498C27.4792 41.9373 27.5424 41.7847 27.5424 41.6256C27.5424 41.4664 27.4792 41.3138 27.3667 41.2013C27.2541 41.0888 27.1015 41.0256 26.9424 41.0256Z" fill="#222F63"/>
<path d="M16.8996 40.2084L15.5208 41.586L14.9892 41.0556C14.9339 40.9983 14.8677 40.9526 14.7945 40.9211C14.7213 40.8897 14.6425 40.8732 14.5629 40.8725C14.4832 40.8718 14.4042 40.8869 14.3304 40.9171C14.2567 40.9473 14.1897 40.9918 14.1334 41.0482C14.077 41.1045 14.0325 41.1715 14.0023 41.2452C13.9722 41.319 13.957 41.398 13.9577 41.4777C13.9584 41.5573 13.9749 41.636 14.0064 41.7093C14.0378 41.7825 14.0835 41.8487 14.1408 41.904L15.1008 42.864C15.2133 42.9765 15.3659 43.0397 15.525 43.0397C15.6841 43.0397 15.8367 42.9765 15.9492 42.864L17.7492 41.064C17.8585 40.9508 17.919 40.7993 17.9176 40.642C17.9163 40.4846 17.8532 40.3342 17.7419 40.2229C17.6307 40.1117 17.4802 40.0486 17.3229 40.0472C17.1655 40.0458 17.014 40.1063 16.9008 40.2156L16.8996 40.2084Z" fill="#222F63"/>
<path d="M15.72 37.3332C14.871 37.333 14.041 37.5845 13.3349 38.056C12.6289 38.5275 12.0785 39.1978 11.7535 39.9821C11.4284 40.7664 11.3432 41.6295 11.5087 42.4623C11.6742 43.295 12.0829 44.0599 12.6832 44.6604C13.2834 45.2608 14.0483 45.6697 14.8809 45.8354C15.7136 46.0011 16.5767 45.9162 17.3611 45.5914C18.1455 45.2665 18.816 44.7164 19.2877 44.0104C19.7594 43.3045 20.0112 42.4746 20.0112 41.6256C20.0096 40.4879 19.557 39.3972 18.7526 38.5926C17.9483 37.788 16.8577 37.3351 15.72 37.3332ZM15.72 44.718C15.1083 44.7182 14.5103 44.5371 14.0016 44.1974C13.4929 43.8578 13.0964 43.3749 12.8621 42.8098C12.6279 42.2448 12.5665 41.623 12.6857 41.023C12.8049 40.4231 13.0993 39.872 13.5317 39.4394C13.9641 39.0068 14.5152 38.7121 15.1151 38.5927C15.715 38.4733 16.3368 38.5345 16.9019 38.7685C17.4671 39.0025 17.9501 39.3989 18.2899 39.9074C18.6298 40.416 18.8112 41.0139 18.8112 41.6256C18.8099 42.4451 18.4839 43.2308 17.9045 43.8104C17.3251 44.3901 16.5396 44.7164 15.72 44.718Z" fill="#222F63"/>
<path d="M38.664 8.39998V28.7616L36.4392 30.9864V9.38638C36.4392 9.22725 36.376 9.07463 36.2635 8.96211C36.151 8.84959 35.9984 8.78638 35.8392 8.78638H30.9816C31.0394 8.52184 31.0692 8.25195 31.0704 7.98118V6.59998H36.864C37.3414 6.59998 37.7993 6.78962 38.1368 7.12718C38.4744 7.46475 38.664 7.92259 38.664 8.39998Z" fill="#222F63"/>
<path d="M33.6636 39.8736L32.1888 38.3976L33.1248 36.2688L35.7924 38.9376L33.6636 39.8736Z" fill="#222F63"/>
<path d="M31.6716 39.576L32.4852 40.392L31.032 41.0304L31.6716 39.576Z" fill="#222F63"/>
<path d="M29.8704 7.97998C29.8694 8.67687 29.5918 9.34487 29.0986 9.8372C28.6054 10.3295 27.9369 10.6059 27.24 10.6056H18.0192C17.3232 10.6046 16.6561 10.3277 16.1641 9.83543C15.6721 9.34321 15.3954 8.67593 15.3948 7.97998V6.59998H29.8704V7.97998Z" fill="#C6B9C4"/>
<path d="M50.2132 18.9096L33.8383 35.2845L36.7768 38.2229L53.1517 21.848L50.2132 18.9096Z" fill="#222F63"/>
</svg>
