<svg width="18" height="16" viewBox="0 0 18 16" fill="none" xmlns="http://www.w3.org/2000/svg">
<path d="M6.36201 5.158C6.36201 5.158 3.20201 5.508 1.09401 5.742C0.904012 5.765 0.736012 5.892 0.673012 6.085C0.610012 6.278 0.673012 6.479 0.813012 6.606C2.37901 8.035 4.73201 10.175 4.73201 10.175C4.73001 10.175 4.08601 13.288 3.65801 15.365C3.62201 15.553 3.69001 15.752 3.85401 15.871C4.01701 15.99 4.22701 15.992 4.39201 15.899C6.23601 14.851 8.99801 13.275 8.99801 13.275C8.99801 13.275 11.761 14.851 13.602 15.9C13.77 15.992 13.98 15.99 14.143 15.871C14.307 15.752 14.375 15.553 14.338 15.366C13.91 13.288 13.267 10.175 13.267 10.175C13.267 10.175 15.62 8.035 17.186 6.609C17.326 6.478 17.388 6.277 17.326 6.085C17.264 5.893 17.096 5.766 16.906 5.744C14.798 5.508 11.637 5.158 11.637 5.158C11.637 5.158 10.327 2.26 9.45401 0.327997C9.37201 0.154997 9.20001 0.0339966 8.99801 0.0339966C8.79601 0.0339966 8.62301 0.155997 8.54501 0.327997C7.67101 2.26 6.36201 5.158 6.36201 5.158Z" fill="#222F63"/>
</svg>
